<?xml version="1.0" encoding="UTF-8"?>
<!DOCTYPE svg PUBLIC "-//W3C//DTD SVG 1.1//EN" "http://www.w3.org/Graphics/SVG/1.1/DTD/svg11.dtd">
<svg xmlns="http://www.w3.org/2000/svg" version="1.1" width="1024px" height="1024px" style="shape-rendering:geometricPrecision; text-rendering:geometricPrecision; image-rendering:optimizeQuality; fill-rule:evenodd; clip-rule:evenodd" xmlns:xlink="http://www.w3.org/1999/xlink">
<g><path style="opacity:1" fill="#fefefd" d="M -0.5,-0.5 C 340.833,-0.5 682.167,-0.5 1023.5,-0.5C 1023.5,340.833 1023.5,682.167 1023.5,1023.5C 682.167,1023.5 340.833,1023.5 -0.5,1023.5C -0.5,682.167 -0.5,340.833 -0.5,-0.5 Z"/></g>
<g><path style="opacity:1" fill="#f61319" d="M 422.5,293.5 C 453.191,292.649 483.524,295.482 513.5,302C 551.063,313.949 586.063,330.949 618.5,353C 622.935,355.551 627.601,357.551 632.5,359C 664.521,362.002 696.521,365.335 728.5,369C 762.538,373.231 793.871,384.565 822.5,403C 837.07,412.646 846.904,425.813 852,442.5C 853.248,449.215 852.248,455.548 849,461.5C 846.269,465.288 842.769,466.954 838.5,466.5C 840.918,449.489 835.585,435.322 822.5,424C 806.442,411.304 788.442,402.304 768.5,397C 737.185,390.463 705.518,387.129 673.5,387C 634.498,386.386 595.498,386.553 556.5,387.5C 469.318,385.701 382.151,383.368 295,380.5C 267.48,380.716 239.98,381.55 212.5,383C 201.403,383.85 190.403,385.35 179.5,387.5C 179.666,394.841 179.5,402.174 179,409.5C 173.61,423.139 172.277,437.139 175,451.5C 176.363,456.558 178.529,461.224 181.5,465.5C 174.706,464.925 169.873,461.259 167,454.5C 163.647,443.073 162.647,431.406 164,419.5C 165.665,413.171 167.331,406.838 169,400.5C 169.736,395.134 169.569,389.8 168.5,384.5C 172.591,373.262 180.591,366.428 192.5,364C 211.558,360.902 230.225,356.235 248.5,350C 270.334,340.722 292,331.055 313.5,321C 348.348,305.372 384.682,296.205 422.5,293.5 Z"/></g>
<g><path style="opacity:1" fill="#fefdfd" d="M 429.5,308.5 C 494.672,304.505 552.338,323.005 602.5,364C 594.516,364.856 586.516,365.523 578.5,366C 489.139,365.991 399.806,364.324 310.5,361C 303.894,360.624 297.561,359.291 291.5,357C 296.259,350.239 302.259,344.906 309.5,341C 347.376,321.868 387.376,311.034 429.5,308.5 Z"/></g>
<g><path style="opacity:1" fill="#f71119" d="M 348.5,469.5 C 347.532,471.607 347.198,473.941 347.5,476.5C 444.833,476.5 542.167,476.5 639.5,476.5C 639.34,478.199 639.506,479.866 640,481.5C 640.483,480.552 640.649,479.552 640.5,478.5C 641.551,483.646 642.218,488.979 642.5,494.5C 641.5,494.5 640.5,494.5 639.5,494.5C 537.098,493.832 434.598,493.166 332,492.5C 331.536,493.094 331.369,493.761 331.5,494.5C 330.5,494.5 329.5,494.5 328.5,494.5C 333.257,474.066 328.257,456.566 313.5,442C 289.903,427.862 269.403,431.362 252,452.5C 244.258,467.756 243.425,483.423 249.5,499.5C 249.167,499.833 248.833,500.167 248.5,500.5C 232.137,492.106 225.637,478.773 229,460.5C 234.61,436.889 249.11,421.722 272.5,415C 306.403,409.254 330.236,422.087 344,453.5C 346.124,458.663 347.624,463.996 348.5,469.5 Z"/></g>
<g><path style="opacity:1" fill="#f61319" d="M 714.5,413.5 C 744.631,411.967 766.131,424.634 779,451.5C 784.254,465.183 783.587,478.516 777,491.5C 772.388,497.704 766.554,501.038 759.5,501.5C 770.42,477.926 766.087,457.76 746.5,441C 720.621,427.407 700.454,433.24 686,458.5C 684.714,461.405 683.714,464.405 683,467.5C 682.805,476.215 682.305,484.881 681.5,493.5C 676.5,494.833 671.5,494.833 666.5,493.5C 658.859,465.256 666.526,442.089 689.5,424C 697.318,419.013 705.651,415.513 714.5,413.5 Z"/></g>
<g><path style="opacity:1" fill="#f9332a" d="M 348.5,469.5 C 348.5,471.167 348.5,472.833 348.5,474.5C 445.833,474.5 543.167,474.5 640.5,474.5C 640.5,475.833 640.5,477.167 640.5,478.5C 640.649,479.552 640.483,480.552 640,481.5C 639.506,479.866 639.34,478.199 639.5,476.5C 542.167,476.5 444.833,476.5 347.5,476.5C 347.198,473.941 347.532,471.607 348.5,469.5 Z"/></g>
<g><path style="opacity:1" fill="#f50000" d="M 639.5,494.5 C 536.833,494.5 434.167,494.5 331.5,494.5C 331.369,493.761 331.536,493.094 332,492.5C 434.598,493.166 537.098,493.832 639.5,494.5 Z"/></g>
<g><path style="opacity:1" fill="#0f1011" d="M 496.5,534.5 C 511.049,533.176 524.716,536.01 537.5,543C 538.685,544.353 540.019,545.52 541.5,546.5C 538.554,552.071 534.888,557.071 530.5,561.5C 518.161,553.526 505.161,552.026 491.5,557C 484.617,563.531 484.95,569.531 492.5,575C 503.424,578.53 514.424,581.863 525.5,585C 542.397,591.99 548.897,604.49 545,622.5C 539.994,637.173 529.827,645.673 514.5,648C 499.843,650.193 485.843,648.193 472.5,642C 467.734,639.403 463.734,635.903 460.5,631.5C 463.849,626.14 467.682,621.14 472,616.5C 483.891,627.465 497.724,631.298 513.5,628C 520.694,624.78 523.527,619.28 522,611.5C 520.859,609.391 519.359,607.558 517.5,606C 504.349,602.129 491.349,597.795 478.5,593C 463.17,581.847 459.67,567.68 468,550.5C 475.272,541.116 484.772,535.783 496.5,534.5 Z"/></g>
<g><path style="opacity:1" fill="#111111" d="M 290.5,600.5 C 290.5,609.167 290.5,617.833 290.5,626.5C 308.5,626.5 326.5,626.5 344.5,626.5C 344.5,633.5 344.5,640.5 344.5,647.5C 318.833,647.5 293.167,647.5 267.5,647.5C 267.5,610.5 267.5,573.5 267.5,536.5C 292.833,536.5 318.167,536.5 343.5,536.5C 343.5,543.167 343.5,549.833 343.5,556.5C 325.833,556.5 308.167,556.5 290.5,556.5C 290.5,564.833 290.5,573.167 290.5,581.5C 306.833,581.5 323.167,581.5 339.5,581.5C 339.5,587.833 339.5,594.167 339.5,600.5C 323.167,600.5 306.833,600.5 290.5,600.5 Z"/></g>
<g><path style="opacity:1" fill="#101112" d="M 601.5,536.5 C 610.418,536.183 619.251,536.516 628,537.5C 642.131,574.088 655.965,610.755 669.5,647.5C 661.804,647.831 654.138,647.497 646.5,646.5C 643.833,639.5 641.167,632.5 638.5,625.5C 622.514,624.501 606.514,624.167 590.5,624.5C 588.332,632.171 585.665,639.671 582.5,647C 574.479,647.832 566.479,647.665 558.5,646.5C 573.232,609.967 587.565,573.301 601.5,536.5 Z"/></g>
<g><path style="opacity:1" fill="#0e0f10" d="M 170.5,536.5 C 195.833,536.5 221.167,536.5 246.5,536.5C 246.5,543.167 246.5,549.833 246.5,556.5C 228.833,556.5 211.167,556.5 193.5,556.5C 193.5,565.833 193.5,575.167 193.5,584.5C 209.5,584.5 225.5,584.5 241.5,584.5C 241.5,591.167 241.5,597.833 241.5,604.5C 225.5,604.5 209.5,604.5 193.5,604.5C 193.5,618.833 193.5,633.167 193.5,647.5C 185.833,647.5 178.167,647.5 170.5,647.5C 170.5,610.5 170.5,573.5 170.5,536.5 Z"/></g>
<g><path style="opacity:1" fill="#0f1111" d="M 290.5,600.5 C 289.506,609.652 289.173,618.985 289.5,628.5C 307.167,628.5 324.833,628.5 342.5,628.5C 342.5,634.167 342.5,639.833 342.5,645.5C 318.167,645.5 293.833,645.5 269.5,645.5C 269.5,609.5 269.5,573.5 269.5,537.5C 293.5,537.5 317.5,537.5 341.5,537.5C 341.5,543.5 341.5,549.5 341.5,555.5C 324.167,555.5 306.833,555.5 289.5,555.5C 289.5,564.5 289.5,573.5 289.5,582.5C 305.833,582.5 322.167,582.5 338.5,582.5C 338.5,588.167 338.5,593.833 338.5,599.5C 322.325,599.17 306.325,599.504 290.5,600.5 Z"/></g>
<g><path style="opacity:1" fill="#131415" d="M 371.5,536.5 C 379.167,536.5 386.833,536.5 394.5,536.5C 394.5,566.5 394.5,596.5 394.5,626.5C 411.167,626.5 427.833,626.5 444.5,626.5C 444.5,633.5 444.5,640.5 444.5,647.5C 420.167,647.5 395.833,647.5 371.5,647.5C 371.5,610.5 371.5,573.5 371.5,536.5 Z"/></g>
<g><path style="opacity:1" fill="#0e1010" d="M 789.5,536.5 C 789.5,573.167 789.5,609.833 789.5,646.5C 781.5,646.5 773.5,646.5 765.5,646.5C 747.83,621.322 730.33,595.989 713,570.5C 712.5,596.165 712.333,621.831 712.5,647.5C 704.833,647.5 697.167,647.5 689.5,647.5C 689.5,610.5 689.5,573.5 689.5,536.5C 697.86,536.169 706.193,536.502 714.5,537.5C 731.805,562.638 749.305,587.638 767,612.5C 767.5,587.169 767.667,561.836 767.5,536.5C 774.833,536.5 782.167,536.5 789.5,536.5 Z"/></g>
<g><path style="opacity:1" fill="#0e0f10" d="M 820.5,536.5 C 828.167,536.5 835.833,536.5 843.5,536.5C 843.5,573.5 843.5,610.5 843.5,647.5C 835.833,647.5 828.167,647.5 820.5,647.5C 820.5,610.5 820.5,573.5 820.5,536.5 Z"/></g>
<g><path style="opacity:1" fill="#5d5e5e" d="M 789.5,536.5 C 790.498,573.33 790.832,610.33 790.5,647.5C 781.983,647.826 773.65,647.493 765.5,646.5C 773.5,646.5 781.5,646.5 789.5,646.5C 789.5,609.833 789.5,573.167 789.5,536.5 Z"/></g>
<g><path style="opacity:1" fill="#fbfbfb" d="M 614.5,559.5 C 619.643,574.751 625.31,589.918 631.5,605C 620.505,605.5 609.505,605.667 598.5,605.5C 604.03,590.242 609.364,574.909 614.5,559.5 Z"/></g>
<g><path style="opacity:1" fill="#0f1011" d="M 400.5,674.5 C 418.414,672.28 430.247,679.613 436,696.5C 438.501,715.31 430.667,727.143 412.5,732C 388.867,732.7 377.7,721.2 379,697.5C 381.918,685.752 389.085,678.085 400.5,674.5 Z"/></g>
<g><path style="opacity:1" fill="#0f1011" d="M 690.5,674.5 C 695.844,674.334 701.177,674.501 706.5,675C 710.719,675.791 714.386,677.625 717.5,680.5C 715.5,683.167 713.5,685.833 711.5,688.5C 705.491,684.624 699.157,683.791 692.5,686C 688.299,689.523 688.632,692.523 693.5,695C 700.399,696.723 707.065,699.056 713.5,702C 721.62,710.883 721.286,719.549 712.5,728C 700.986,734.257 689.652,733.924 678.5,727C 677.313,725.981 676.313,724.814 675.5,723.5C 677.427,720.65 679.594,717.983 682,715.5C 688.265,721.262 695.431,723.095 703.5,721C 708.018,717.868 708.351,714.535 704.5,711C 697.334,708.791 690.334,706.124 683.5,703C 675.993,695.455 675.66,687.622 682.5,679.5C 685.231,677.808 687.898,676.142 690.5,674.5 Z"/></g>
<g><path style="opacity:1" fill="#0f1010" d="M 546.5,674.5 C 563.914,672.774 575.414,680.108 581,696.5C 582.033,723.466 569.2,734.966 542.5,731C 528.137,724.447 521.971,713.28 524,697.5C 527.015,685.319 534.515,677.653 546.5,674.5 Z"/></g>
<g><path style="opacity:1" fill="#101112" d="M 609.5,675.5 C 619.233,675.109 628.9,675.609 638.5,677C 650.714,682.439 653.88,691.273 648,703.5C 645.933,706.07 643.433,708.07 640.5,709.5C 645.305,716.805 650.305,723.971 655.5,731C 650.833,731.667 646.167,731.667 641.5,731C 636.922,725.177 632.588,719.177 628.5,713C 626.19,712.503 623.857,712.337 621.5,712.5C 621.5,718.833 621.5,725.167 621.5,731.5C 617.5,731.5 613.5,731.5 609.5,731.5C 609.5,712.833 609.5,694.167 609.5,675.5 Z"/></g>
<g><path style="opacity:1" fill="#0f1011" d="M 340.5,731.5 C 340.832,718.483 340.499,705.483 339.5,692.5C 338.893,692.624 338.56,692.957 338.5,693.5C 333.518,703.464 328.018,713.131 322,722.5C 316.081,712.998 310.414,703.331 305,693.5C 304.5,706.162 304.333,718.829 304.5,731.5C 300.5,731.5 296.5,731.5 292.5,731.5C 292.5,712.833 292.5,694.167 292.5,675.5C 297.544,675.173 302.544,675.506 307.5,676.5C 312.134,684.963 316.967,693.296 322,701.5C 326.96,693.081 331.793,684.581 336.5,676C 341.489,675.501 346.489,675.334 351.5,675.5C 351.5,694.167 351.5,712.833 351.5,731.5C 347.833,731.5 344.167,731.5 340.5,731.5 Z"/></g>
<g><path style="opacity:1" fill="#111213" d="M 458.5,675.5 C 472.5,675.5 486.5,675.5 500.5,675.5C 500.5,679.167 500.5,682.833 500.5,686.5C 495.5,686.5 490.5,686.5 485.5,686.5C 485.5,701.5 485.5,716.5 485.5,731.5C 481.5,731.5 477.5,731.5 473.5,731.5C 473.5,716.5 473.5,701.5 473.5,686.5C 468.5,686.5 463.5,686.5 458.5,686.5C 458.5,682.833 458.5,679.167 458.5,675.5 Z"/></g>
<g><path style="opacity:1" fill="#fbfcfb" d="M 403.5,685.5 C 421.851,686.696 428.018,696.029 422,713.5C 413.061,723.698 403.727,724.032 394,714.5C 387.691,701.593 390.858,691.926 403.5,685.5 Z"/></g>
<g><path style="opacity:1" fill="#fcfcfc" d="M 548.5,685.5 C 558.463,684.32 565.296,688.32 569,697.5C 571.697,713.797 564.864,721.63 548.5,721C 538.809,717.126 534.642,709.959 536,699.5C 537.926,692.745 542.093,688.078 548.5,685.5 Z"/></g>
<g><path style="opacity:1" fill="#fcfcfc" d="M 621.5,686.5 C 625.846,686.334 630.179,686.501 634.5,687C 637.859,688.135 639.192,690.468 638.5,694C 638.919,696.981 637.919,699.314 635.5,701C 630.845,701.499 626.179,701.666 621.5,701.5C 621.5,696.5 621.5,691.5 621.5,686.5 Z"/></g>
<g><path style="opacity:1" fill="#424444" d="M 338.5,693.5 C 338.56,692.957 338.893,692.624 339.5,692.5C 340.499,705.483 340.832,718.483 340.5,731.5C 339.833,718.833 339.167,706.167 338.5,693.5 Z"/></g>
</svg>
